<svg width="595" height="842" viewBox="0 0 595 842" fill="none" xmlns="http://www.w3.org/2000/svg">
<rect width="595" height="842" fill="#E5E5E5"/>
<rect width="595" height="842" fill="white"/>
<path d="M264.092 204.908C260.316 201.132 255.505 198.561 250.267 197.519C245.03 196.477 239.601 197.012 234.668 199.055C229.734 201.099 225.517 204.559 222.55 209C219.584 213.44 218 218.66 218 224C218 229.34 219.584 234.56 222.55 239C225.517 243.441 229.734 246.901 234.668 248.945C239.601 250.988 245.03 251.523 250.267 250.481C255.505 249.439 260.316 246.868 264.092 243.092L259.422 238.422C256.569 241.274 252.935 243.216 248.979 244.003C245.023 244.79 240.922 244.386 237.195 242.843C233.468 241.299 230.283 238.685 228.042 235.331C225.801 231.977 224.605 228.034 224.605 224C224.605 219.966 225.801 216.023 228.042 212.669C230.283 209.315 233.468 206.701 237.195 205.157C240.922 203.614 245.023 203.21 248.979 203.997C252.935 204.784 256.569 206.726 259.422 209.578L264.092 204.908Z" fill="#0D0C0C"/>
<rect x="238" y="212" width="5" height="21" fill="#0D0C0C"/>
<rect x="238" y="230" width="14" height="5" fill="#0D0C0C"/>
<path d="M284.328 249.16V251H275.797V249.16H284.328ZM276.242 233.938V251H273.98V233.938H276.242ZM288.945 238.32V251H286.766V238.32H288.945ZM286.602 234.957C286.602 234.605 286.707 234.309 286.918 234.066C287.137 233.824 287.457 233.703 287.879 233.703C288.293 233.703 288.609 233.824 288.828 234.066C289.055 234.309 289.168 234.605 289.168 234.957C289.168 235.293 289.055 235.582 288.828 235.824C288.609 236.059 288.293 236.176 287.879 236.176C287.457 236.176 287.137 236.059 286.918 235.824C286.707 235.582 286.602 235.293 286.602 234.957ZM294.594 241.027V251H292.426V238.32H294.477L294.594 241.027ZM294.078 244.18L293.176 244.145C293.184 243.277 293.312 242.477 293.562 241.742C293.812 241 294.164 240.355 294.617 239.809C295.07 239.262 295.609 238.84 296.234 238.543C296.867 238.238 297.566 238.086 298.332 238.086C298.957 238.086 299.52 238.172 300.02 238.344C300.52 238.508 300.945 238.773 301.297 239.141C301.656 239.508 301.93 239.984 302.117 240.57C302.305 241.148 302.398 241.855 302.398 242.691V251H300.219V242.668C300.219 242.004 300.121 241.473 299.926 241.074C299.73 240.668 299.445 240.375 299.07 240.195C298.695 240.008 298.234 239.914 297.688 239.914C297.148 239.914 296.656 240.027 296.211 240.254C295.773 240.48 295.395 240.793 295.074 241.191C294.762 241.59 294.516 242.047 294.336 242.562C294.164 243.07 294.078 243.609 294.078 244.18ZM316.32 245.574H318.57C318.453 246.652 318.145 247.617 317.645 248.469C317.145 249.32 316.438 249.996 315.523 250.496C314.609 250.988 313.469 251.234 312.102 251.234C311.102 251.234 310.191 251.047 309.371 250.672C308.559 250.297 307.859 249.766 307.273 249.078C306.688 248.383 306.234 247.551 305.914 246.582C305.602 245.605 305.445 244.52 305.445 243.324V241.625C305.445 240.43 305.602 239.348 305.914 238.379C306.234 237.402 306.691 236.566 307.285 235.871C307.887 235.176 308.609 234.641 309.453 234.266C310.297 233.891 311.246 233.703 312.301 233.703C313.59 233.703 314.68 233.945 315.57 234.43C316.461 234.914 317.152 235.586 317.645 236.445C318.145 237.297 318.453 238.285 318.57 239.41H316.32C316.211 238.613 316.008 237.93 315.711 237.359C315.414 236.781 314.992 236.336 314.445 236.023C313.898 235.711 313.184 235.555 312.301 235.555C311.543 235.555 310.875 235.699 310.297 235.988C309.727 236.277 309.246 236.688 308.855 237.219C308.473 237.75 308.184 238.387 307.988 239.129C307.793 239.871 307.695 240.695 307.695 241.602V243.324C307.695 244.16 307.781 244.945 307.953 245.68C308.133 246.414 308.402 247.059 308.762 247.613C309.121 248.168 309.578 248.605 310.133 248.926C310.688 249.238 311.344 249.395 312.102 249.395C313.062 249.395 313.828 249.242 314.398 248.938C314.969 248.633 315.398 248.195 315.688 247.625C315.984 247.055 316.195 246.371 316.32 245.574ZM320.75 244.801V244.531C320.75 243.617 320.883 242.77 321.148 241.988C321.414 241.199 321.797 240.516 322.297 239.938C322.797 239.352 323.402 238.898 324.113 238.578C324.824 238.25 325.621 238.086 326.504 238.086C327.395 238.086 328.195 238.25 328.906 238.578C329.625 238.898 330.234 239.352 330.734 239.938C331.242 240.516 331.629 241.199 331.895 241.988C332.16 242.77 332.293 243.617 332.293 244.531V244.801C332.293 245.715 332.16 246.562 331.895 247.344C331.629 248.125 331.242 248.809 330.734 249.395C330.234 249.973 329.629 250.426 328.918 250.754C328.215 251.074 327.418 251.234 326.527 251.234C325.637 251.234 324.836 251.074 324.125 250.754C323.414 250.426 322.805 249.973 322.297 249.395C321.797 248.809 321.414 248.125 321.148 247.344C320.883 246.562 320.75 245.715 320.75 244.801ZM322.918 244.531V244.801C322.918 245.434 322.992 246.031 323.141 246.594C323.289 247.148 323.512 247.641 323.809 248.07C324.113 248.5 324.492 248.84 324.945 249.09C325.398 249.332 325.926 249.453 326.527 249.453C327.121 249.453 327.641 249.332 328.086 249.09C328.539 248.84 328.914 248.5 329.211 248.07C329.508 247.641 329.73 247.148 329.879 246.594C330.035 246.031 330.113 245.434 330.113 244.801V244.531C330.113 243.906 330.035 243.316 329.879 242.762C329.73 242.199 329.504 241.703 329.199 241.273C328.902 240.836 328.527 240.492 328.074 240.242C327.629 239.992 327.105 239.867 326.504 239.867C325.91 239.867 325.387 239.992 324.934 240.242C324.488 240.492 324.113 240.836 323.809 241.273C323.512 241.703 323.289 242.199 323.141 242.762C322.992 243.316 322.918 243.906 322.918 244.531ZM337.18 241.027V251H335.012V238.32H337.062L337.18 241.027ZM336.664 244.18L335.762 244.145C335.77 243.277 335.898 242.477 336.148 241.742C336.398 241 336.75 240.355 337.203 239.809C337.656 239.262 338.195 238.84 338.82 238.543C339.453 238.238 340.152 238.086 340.918 238.086C341.543 238.086 342.105 238.172 342.605 238.344C343.105 238.508 343.531 238.773 343.883 239.141C344.242 239.508 344.516 239.984 344.703 240.57C344.891 241.148 344.984 241.855 344.984 242.691V251H342.805V242.668C342.805 242.004 342.707 241.473 342.512 241.074C342.316 240.668 342.031 240.375 341.656 240.195C341.281 240.008 340.82 239.914 340.273 239.914C339.734 239.914 339.242 240.027 338.797 240.254C338.359 240.48 337.98 240.793 337.66 241.191C337.348 241.59 337.102 242.047 336.922 242.562C336.75 243.07 336.664 243.609 336.664 244.18ZM350.445 241.027V251H348.277V238.32H350.328L350.445 241.027ZM349.93 244.18L349.027 244.145C349.035 243.277 349.164 242.477 349.414 241.742C349.664 241 350.016 240.355 350.469 239.809C350.922 239.262 351.461 238.84 352.086 238.543C352.719 238.238 353.418 238.086 354.184 238.086C354.809 238.086 355.371 238.172 355.871 238.344C356.371 238.508 356.797 238.773 357.148 239.141C357.508 239.508 357.781 239.984 357.969 240.57C358.156 241.148 358.25 241.855 358.25 242.691V251H356.07V242.668C356.07 242.004 355.973 241.473 355.777 241.074C355.582 240.668 355.297 240.375 354.922 240.195C354.547 240.008 354.086 239.914 353.539 239.914C353 239.914 352.508 240.027 352.062 240.254C351.625 240.48 351.246 240.793 350.926 241.191C350.613 241.59 350.367 242.047 350.188 242.562C350.016 243.07 349.93 243.609 349.93 244.18Z" fill="black"/>
</svg>
